<?xml version="1.0" encoding="UTF-8" standalone="no"?>
<!-- Generator: Gravit.io -->
<svg xmlns="http://www.w3.org/2000/svg" xmlns:xlink="http://www.w3.org/1999/xlink" style="isolation:isolate" viewBox="467 223.732 247.8 46.08" width="247.8pt" height="46.08pt">
    <path d=" M 473.6 226.612 L 487.94 261.172 L 502.28 226.612 L 508.88 226.612 L 508.88 269.092 L 504.56 269.092 L 504.56 232.372 L 504.44 232.372 L 489.08 269.092 L 486.8 269.092 L 471.44 232.372 L 471.32 232.372 L 471.32 269.092 L 467 269.092 L 467 226.612 L 473.6 226.612 Z  M 524.72 230.212 L 524.72 230.212 L 524.72 230.212 Q 524.72 231.472 523.82 232.282 L 523.82 232.282 L 523.82 232.282 Q 522.92 233.092 521.84 233.092 L 521.84 233.092 L 521.84 233.092 Q 520.76 233.092 519.86 232.282 L 519.86 232.282 L 519.86 232.282 Q 518.96 231.472 518.96 230.212 L 518.96 230.212 L 518.96 230.212 Q 518.96 228.952 519.86 228.142 L 519.86 228.142 L 519.86 228.142 Q 520.76 227.332 521.84 227.332 L 521.84 227.332 L 521.84 227.332 Q 522.92 227.332 523.82 228.142 L 523.82 228.142 L 523.82 228.142 Q 524.72 228.952 524.72 230.212 Z  M 523.82 241.012 L 523.82 269.092 L 519.86 269.092 L 519.86 241.012 L 523.82 241.012 Z  M 533.78 269.092 L 533.78 249.772 L 533.78 249.772 Q 533.78 247.912 533.69 245.992 L 533.69 245.992 L 533.69 245.992 Q 533.6 244.072 533.54 241.012 L 533.54 241.012 L 537.44 241.012 L 537.44 246.232 L 537.56 246.232 L 537.56 246.232 Q 537.98 245.092 538.76 244.042 L 538.76 244.042 L 538.76 244.042 Q 539.54 242.992 540.65 242.152 L 540.65 242.152 L 540.65 242.152 Q 541.76 241.312 543.23 240.802 L 543.23 240.802 L 543.23 240.802 Q 544.7 240.292 546.56 240.292 L 546.56 240.292 L 546.56 240.292 Q 548.24 240.292 549.5 240.652 L 549.5 240.652 L 548.72 244.552 L 548.72 244.552 Q 547.94 244.252 546.44 244.252 L 546.44 244.252 L 546.44 244.252 Q 544.16 244.252 542.54 245.122 L 542.54 245.122 L 542.54 245.122 Q 540.92 245.992 539.84 247.342 L 539.84 247.342 L 539.84 247.342 Q 538.76 248.692 538.25 250.252 L 538.25 250.252 L 538.25 250.252 Q 537.74 251.812 537.74 253.252 L 537.74 253.252 L 537.74 269.092 L 533.78 269.092 Z  M 571.28 255.112 L 569.24 255.112 L 569.24 255.112 Q 567.74 255.112 565.49 255.262 L 565.49 255.262 L 565.49 255.262 Q 563.24 255.412 561.17 255.982 L 561.17 255.982 L 561.17 255.982 Q 559.1 256.552 557.63 257.752 L 557.63 257.752 L 557.63 257.752 Q 556.16 258.952 556.16 261.052 L 556.16 261.052 L 556.16 261.052 Q 556.16 262.432 556.73 263.422 L 556.73 263.422 L 556.73 263.422 Q 557.3 264.412 558.26 265.042 L 558.26 265.042 L 558.26 265.042 Q 559.22 265.672 560.39 265.942 L 560.39 265.942 L 560.39 265.942 Q 561.56 266.212 562.76 266.212 L 562.76 266.212 L 562.76 266.212 Q 564.92 266.212 566.51 265.492 L 566.51 265.492 L 566.51 265.492 Q 568.1 264.772 569.18 263.542 L 569.18 263.542 L 569.18 263.542 Q 570.26 262.312 570.77 260.662 L 570.77 260.662 L 570.77 260.662 Q 571.28 259.012 571.28 257.152 L 571.28 257.152 L 571.28 255.112 Z  M 569.3 251.872 L 571.28 251.872 L 571.28 251.152 L 571.28 251.152 Q 571.28 243.892 564.08 243.892 L 564.08 243.892 L 564.08 243.892 Q 559.16 243.892 555.5 247.192 L 555.5 247.192 L 553.1 244.372 L 553.1 244.372 Q 557.06 240.292 564.98 240.292 L 564.98 240.292 L 564.98 240.292 Q 567.02 240.292 568.91 240.892 L 568.91 240.892 L 568.91 240.892 Q 570.8 241.492 572.18 242.722 L 572.18 242.722 L 572.18 242.722 Q 573.56 243.952 574.4 245.812 L 574.4 245.812 L 574.4 245.812 Q 575.24 247.672 575.24 250.252 L 575.24 250.252 L 575.24 262.792 L 575.24 262.792 Q 575.24 264.412 575.39 266.182 L 575.39 266.182 L 575.39 266.182 Q 575.54 267.952 575.72 269.092 L 575.72 269.092 L 571.88 269.092 L 571.88 269.092 Q 571.7 268.072 571.61 266.872 L 571.61 266.872 L 571.61 266.872 Q 571.52 265.672 571.52 264.532 L 571.52 264.532 L 571.4 264.532 L 571.4 264.532 Q 569.66 267.352 567.29 268.582 L 567.29 268.582 L 567.29 268.582 Q 564.92 269.812 561.5 269.812 L 561.5 269.812 L 561.5 269.812 Q 559.64 269.812 557.9 269.302 L 557.9 269.302 L 557.9 269.302 Q 556.16 268.792 554.81 267.742 L 554.81 267.742 L 554.81 267.742 Q 553.46 266.692 552.65 265.162 L 552.65 265.162 L 552.65 265.162 Q 551.84 263.632 551.84 261.592 L 551.84 261.592 L 551.84 261.592 Q 551.84 258.172 553.61 256.222 L 553.61 256.222 L 553.61 256.222 Q 555.38 254.272 558.05 253.312 L 558.05 253.312 L 558.05 253.312 Q 560.72 252.352 563.75 252.112 L 563.75 252.112 L 563.75 252.112 Q 566.78 251.872 569.3 251.872 L 569.3 251.872 Z  M 588.38 223.732 L 588.38 253.672 L 601.64 241.012 L 607.58 241.012 L 593.6 253.852 L 609.08 269.092 L 602.96 269.092 L 588.38 254.332 L 588.38 269.092 L 584.42 269.092 L 584.42 223.732 L 588.38 223.732 Z  M 628.4 230.572 L 628.4 269.092 L 624.08 269.092 L 624.08 230.572 L 609.86 230.572 L 609.86 226.612 L 642.62 226.612 L 642.62 230.572 L 628.4 230.572 Z  M 644 252.892 L 662.96 252.892 L 662.96 252.892 Q 662.96 248.872 660.56 246.382 L 660.56 246.382 L 660.56 246.382 Q 658.16 243.892 653.84 243.892 L 653.84 243.892 L 653.84 243.892 Q 651.92 243.892 650.12 244.642 L 650.12 244.642 L 650.12 244.642 Q 648.32 245.392 646.97 246.652 L 646.97 246.652 L 646.97 246.652 Q 645.62 247.912 644.81 249.532 L 644.81 249.532 L 644.81 249.532 Q 644 251.152 644 252.892 L 644 252.892 Z  M 667.28 256.132 L 643.88 256.132 L 643.88 256.132 Q 644.06 258.232 644.9 260.092 L 644.9 260.092 L 644.9 260.092 Q 645.74 261.952 647.12 263.302 L 647.12 263.302 L 647.12 263.302 Q 648.5 264.652 650.3 265.432 L 650.3 265.432 L 650.3 265.432 Q 652.1 266.212 654.2 266.212 L 654.2 266.212 L 654.2 266.212 Q 657.38 266.212 659.69 264.742 L 659.69 264.742 L 659.69 264.742 Q 662 263.272 663.2 261.352 L 663.2 261.352 L 666.26 263.872 L 666.26 263.872 Q 663.74 267.052 660.71 268.432 L 660.71 268.432 L 660.71 268.432 Q 657.68 269.812 654.2 269.812 L 654.2 269.812 L 654.2 269.812 Q 651.08 269.812 648.41 268.702 L 648.41 268.702 L 648.41 268.702 Q 645.74 267.592 643.82 265.612 L 643.82 265.612 L 643.82 265.612 Q 641.9 263.632 640.79 260.932 L 640.79 260.932 L 640.79 260.932 Q 639.68 258.232 639.68 255.052 L 639.68 255.052 L 639.68 255.052 Q 639.68 251.872 640.76 249.172 L 640.76 249.172 L 640.76 249.172 Q 641.84 246.472 643.76 244.492 L 643.76 244.492 L 643.76 244.492 Q 645.68 242.512 648.26 241.402 L 648.26 241.402 L 648.26 241.402 Q 650.84 240.292 653.84 240.292 L 653.84 240.292 L 653.84 240.292 Q 657.02 240.292 659.54 241.432 L 659.54 241.432 L 659.54 241.432 Q 662.06 242.572 663.77 244.462 L 663.77 244.462 L 663.77 244.462 Q 665.48 246.352 666.38 248.902 L 666.38 248.902 L 666.38 248.902 Q 667.28 251.452 667.28 254.332 L 667.28 254.332 L 667.28 256.132 Z  M 692.9 245.332 L 689.36 247.672 L 689.36 247.672 Q 688.46 245.932 686.96 244.912 L 686.96 244.912 L 686.96 244.912 Q 685.46 243.892 683.3 243.892 L 683.3 243.892 L 683.3 243.892 Q 682.28 243.892 681.23 244.132 L 681.23 244.132 L 681.23 244.132 Q 680.18 244.372 679.34 244.882 L 679.34 244.882 L 679.34 244.882 Q 678.5 245.392 677.99 246.172 L 677.99 246.172 L 677.99 246.172 Q 677.48 246.952 677.48 248.092 L 677.48 248.092 L 677.48 248.092 Q 677.48 250.072 678.86 250.972 L 678.86 250.972 L 678.86 250.972 Q 680.24 251.872 683 252.532 L 683 252.532 L 687.02 253.492 L 687.02 253.492 Q 689.96 254.152 691.91 256.162 L 691.91 256.162 L 691.91 256.162 Q 693.86 258.172 693.86 261.172 L 693.86 261.172 L 693.86 261.172 Q 693.86 263.452 692.93 265.102 L 692.93 265.102 L 692.93 265.102 Q 692 266.752 690.47 267.802 L 690.47 267.802 L 690.47 267.802 Q 688.94 268.852 686.96 269.332 L 686.96 269.332 L 686.96 269.332 Q 684.98 269.812 682.94 269.812 L 682.94 269.812 L 682.94 269.812 Q 679.7 269.812 676.91 268.582 L 676.91 268.582 L 676.91 268.582 Q 674.12 267.352 672.14 264.352 L 672.14 264.352 L 675.56 262.012 L 675.56 262.012 Q 676.76 263.932 678.59 265.072 L 678.59 265.072 L 678.59 265.072 Q 680.42 266.212 682.94 266.212 L 682.94 266.212 L 682.94 266.212 Q 684.14 266.212 685.34 265.942 L 685.34 265.942 L 685.34 265.942 Q 686.54 265.672 687.47 265.102 L 687.47 265.102 L 687.47 265.102 Q 688.4 264.532 688.97 263.632 L 688.97 263.632 L 688.97 263.632 Q 689.54 262.732 689.54 261.532 L 689.54 261.532 L 689.54 261.532 Q 689.54 259.432 687.98 258.502 L 687.98 258.502 L 687.98 258.502 Q 686.42 257.572 684.2 257.032 L 684.2 257.032 L 680.36 256.132 L 680.36 256.132 Q 679.64 255.952 678.41 255.532 L 678.41 255.532 L 678.41 255.532 Q 677.18 255.112 676.01 254.272 L 676.01 254.272 L 676.01 254.272 Q 674.84 253.432 674 252.082 L 674 252.082 L 674 252.082 Q 673.16 250.732 673.16 248.752 L 673.16 248.752 L 673.16 248.752 Q 673.16 246.592 674.03 244.972 L 674.03 244.972 L 674.03 244.972 Q 674.9 243.352 676.37 242.332 L 676.37 242.332 L 676.37 242.332 Q 677.84 241.312 679.7 240.802 L 679.7 240.802 L 679.7 240.802 Q 681.56 240.292 683.54 240.292 L 683.54 240.292 L 683.54 240.292 Q 686.48 240.292 689 241.432 L 689 241.432 L 689 241.432 Q 691.52 242.572 692.9 245.332 L 692.9 245.332 Z  M 714.56 241.012 L 714.56 244.612 L 706.46 244.612 L 706.46 261.172 L 706.46 261.172 Q 706.46 262.732 706.76 263.722 L 706.76 263.722 L 706.76 263.722 Q 707.06 264.712 707.6 265.252 L 707.6 265.252 L 707.6 265.252 Q 708.14 265.792 708.89 266.002 L 708.89 266.002 L 708.89 266.002 Q 709.64 266.212 710.54 266.212 L 710.54 266.212 L 710.54 266.212 Q 711.56 266.212 712.64 265.912 L 712.64 265.912 L 712.64 265.912 Q 713.72 265.612 714.62 265.132 L 714.62 265.132 L 714.8 268.792 L 714.8 268.792 Q 712.58 269.812 709.46 269.812 L 709.46 269.812 L 709.46 269.812 Q 708.32 269.812 707.09 269.512 L 707.09 269.512 L 707.09 269.512 Q 705.86 269.212 704.84 268.372 L 704.84 268.372 L 704.84 268.372 Q 703.82 267.532 703.16 266.092 L 703.16 266.092 L 703.16 266.092 Q 702.5 264.652 702.5 262.312 L 702.5 262.312 L 702.5 244.612 L 696.56 244.612 L 696.56 241.012 L 702.5 241.012 L 702.5 233.092 L 706.46 233.092 L 706.46 241.012 L 714.56 241.012 Z " fill="rgb(232,232,232)" />
</svg>